<?xml version="1.0" encoding="UTF-8" standalone="no"?> <svg id="Layer_1" data-name="Layer 1" xmlns="http://www.w3.org/2000/svg" viewBox="0 0 128 128"><defs><style>.cls-1{fill:#3b4551;}.cls-2{fill:#2b77c0;}</style></defs><title>a</title><path class="cls-1" d="M63.80732,1.63181A62.06134,62.06134,0,0,0,2.214,54.11474l11.17393,1.779a51.06376,51.06376,0,0,1,101.47831,8.11042,51.472,51.472,0,0,1-1.00137,10.11869l11.09382,2.2265A62.42447,62.42447,0,0,0,63.80732,1.63181Z"/><path class="cls-1" d="M74.85625,102.23979a41.71772,41.71772,0,0,1-23.761,3.39448A42.59157,42.59157,0,0,1,38.762,101.84373a43.02343,43.02343,0,0,1-11.20155-7.52427A47.19186,47.19186,0,0,1,18.67827,83.5138a54.07968,54.07968,0,0,1-5.57263-13.408l-5.50167.6635-5.785.01657.04005.67679A62.384,62.384,0,0,0,110.98919,104.78V84.84476L91.093,87.55882A37.81653,37.81653,0,0,1,74.85625,102.23979Z"/><path class="cls-2" d="M52.4497,50.54364a2.00433,2.00433,0,0,0-2.00412,2.00412v9.96986a4.98952,4.98952,0,0,0,5.15275,5.15275h5.34249v7.78187a2.004,2.004,0,1,0,4.00808,0V52.54776a2.004,2.004,0,1,0-4.00808,0V63.66247H55.59832a1.012,1.012,0,0,1-1.14484-1.14484V52.54776A2.00414,2.00414,0,0,0,52.4497,50.54364Z"/><path class="cls-2" d="M30.8104,74.0353a2.004,2.004,0,0,0,1.41694,3.42107H46.04955a2.004,2.004,0,0,0,0-4.00808H37.065l8.52081-8.52064A8.426,8.426,0,0,0,33.66966,53.0115L32.245,54.43621a2.00373,2.00373,0,0,0,2.83371,2.83371l1.42471-1.42471a4.41852,4.41852,0,0,1,6.24873,6.24873Z"/><path class="cls-2" d="M84.99773,78.0394a1.98521,1.98521,0,0,0,.76018.15176,2.00568,2.00568,0,0,0,1.85426-1.24377L97.62623,52.574a2.004,2.004,0,0,0-1.8534-2.76517H81.163a2.004,2.004,0,1,0,0,4.0079H92.78253l-8.87681,21.608A2.00262,2.00262,0,0,0,84.99773,78.0394Z"/><path class="cls-2" d="M69.34732,81.92818A2.00423,2.00423,0,0,0,71.32089,80.26L76.738,48.41279a2.00386,2.00386,0,0,0-3.9511-.67126L67.36979,79.58877a2.004,2.004,0,0,0,1.97754,2.33941Z"/></svg>